<?xml version="1.0" ?><svg xmlns="http://www.w3.org/2000/svg" xmlns:xlink="http://www.w3.org/1999/xlink" version="1.1" viewBox="0 0 64 64" style="enable-background:new 0 0 64 64;" xml:space="preserve"><g id="Grid"/><g id="Object"><g><path d="M39.88,46.63H24.12v3.88h-5.1v6h25.96v-6h-5.1V46.63z M42.72,52.78v1.47H21.28v-1.47h5.1V48.9h11.24v3.88H42.72z"/><path d="M56.09,7.49H7.91C4.65,7.49,2,10.14,2,13.4v25.71c0,3.26,2.65,5.91,5.91,5.91h48.18c3.26,0,5.91-2.65,5.91-5.91V13.4    C62,10.14,59.35,7.49,56.09,7.49z M59.74,39.11c0,2.01-1.64,3.65-3.64,3.65H7.91c-2.01,0-3.64-1.64-3.64-3.65V13.4    c0-2.01,1.64-3.65,3.64-3.65h48.18c2.01,0,3.64,1.64,3.64,3.65V39.11z"/><path d="M56.09,11.59H7.91c-1,0-1.81,0.81-1.81,1.81v24.31h51.8V13.4C57.9,12.4,57.09,11.59,56.09,11.59z M55.64,35.44H8.36V13.85    h47.28V35.44z"/><path d="M28.46,30.22c0.22,0.22,0.51,0.33,0.8,0.33c0.29,0,0.58-0.11,0.8-0.33l9.15-9.15c0.44-0.44,0.44-1.16,0-1.6    c-0.44-0.44-1.16-0.44-1.6,0l-8.35,8.35l-2.86-2.86c-0.44-0.44-1.16-0.44-1.6,0s-0.44,1.16,0,1.6L28.46,30.22z"/></g></g></svg>